<svg xmlns="http://www.w3.org/2000/svg" viewBox="0 0 500 500"><title>Tekengebied 1</title><path d="M63.25,0H436.75A63.25,63.25,0,0,1,500,63.25V500a0,0,0,0,1,0,0H63.25A63.25,63.25,0,0,1,0,436.75V63.25A63.25,63.25,0,0,1,63.25,0Z" fill="#5d237a"/><rect x="372.16" y="279" width="21.3" height="198" fill="#fff"/><rect x="338.71" y="279" width="21.3" height="198" fill="#fff"/><rect x="305.26" y="279" width="21.3" height="198" fill="#fff"/><rect x="271.8" y="279" width="21.3" height="198" fill="#fff"/><rect x="238.35" y="279" width="21.3" height="198" fill="#fff"/><rect x="204.9" y="279" width="21.3" height="198" fill="#fff"/><rect x="171.44" y="279" width="21.3" height="198" fill="#fff"/><rect x="137.99" y="279" width="21.3" height="198" fill="#fff"/><rect x="104.54" y="279" width="21.3" height="198" fill="#fff"/><path d="M102.65,258.34h292.2V111.88L320.31,36.7H102.65Z" fill="#fff"/><path d="M308.49,126.75l86.13-14.39L319.17,36.15Z" fill="#773ea3"/><path d="M313.65,261.59l-48.79-80.27a6.2,6.2,0,0,1-8.32-1.77A58.83,58.83,0,1,0,245.89,186a6.19,6.19,0,0,1-2.25,8.2l48.79,80.27a6.21,6.21,0,0,1,8.53,2.09h0l10.61-6.46A6.2,6.2,0,0,1,313.65,261.59ZM180,157.63A47.79,47.79,0,0,1,196,92h0a47.79,47.79,0,1,1-16,65.67v0Z" fill="#9c75ba" fill-opacity="0.98"/><path d="M319.29,113.1h76.06L319.29,36.15Z" fill="#fff"/><rect x="40.84" y="212.15" width="416.32" height="82.53" fill="#00a99d"/><path d="M101.29,270.66a17.68,17.68,0,1,1,8.33-23.58h0a17.69,17.69,0,0,1-8.33,23.57" fill="#d9e021"/></svg>